AmstelvarA2-Roman_YOPQ132.ufo
<glyph name="H" format="2">
  <advance width="1740"/>
  <unicode hex="0048"/>
  <anchor x="870.0" y="0" name="bottom"/>
  <anchor x="870.0" y="1079.0" name="center"/>
  <anchor x="870.0" y="1500" name="top"/>
  <anchor x="0.0" y="1500" name="tonos"/>
  <outline>
    <contour>
      <point x="82" y="0" type="line"/>
      <point x="82" y="200" type="line"/>
      <point x="290" y="235" type="line"/>
      <point x="292" y="754" type="line"/>
      <point x="290" y="1260" type="line"/>
      <point x="82" y="1294" type="line"/>
      <point x="82" y="1500" type="line"/>
      <point x="678" y="1500" type="line"/>
      <point x="678" y="1294" type="line"/>
      <point x="470" y="1260" type="line"/>
      <point x="468" y="754" type="line"/>
      <point x="470" y="235" type="line"/>
      <point x="678" y="200" type="line"/>
      <point x="678" y="0" type="line"/>
    </contour>
    <contour>
      <point x="370" y="646" type="line"/>
      <point x="370" y="921" type="line"/>
      <point x="870" y="913" type="line"/>
      <point x="1379" y="921" type="line"/>
      <point x="1379" y="646" type="line"/>
      <point x="870" y="649" type="line"/>
    </contour>
    <contour>
      <point x="1062" y="0" type="line"/>
      <point x="1062" y="200" type="line"/>
      <point x="1270" y="235" type="line"/>
      <point x="1272" y="754" type="line"/>
      <point x="1270" y="1260" type="line"/>
      <point x="1062" y="1294" type="line"/>
      <point x="1062" y="1500" type="line"/>
      <point x="1658" y="1500" type="line"/>
      <point x="1658" y="1294" type="line"/>
      <point x="1450" y="1260" type="line"/>
      <point x="1448" y="754" type="line"/>
      <point x="1450" y="235" type="line"/>
      <point x="1658" y="200" type="line"/>
      <point x="1658" y="0" type="line"/>
    </contour>
  </outline>
</glyph>
<glyph name="I" format="2">
  <advance width="780"/>
  <unicode hex="0049"/>
  <anchor x="390.0" y="0" name="bottom"/>
  <anchor x="526" y="0" name="ogonek"/>
  <anchor x="390.0" y="1500" name="top"/>
  <anchor x="0.0" y="1500" name="tonos"/>
  <outline>
    <contour>
      <point x="82" y="0" type="line"/>
      <point x="82" y="200" type="line"/>
      <point x="300" y="235" type="line"/>
      <point x="302" y="754" type="line"/>
      <point x="300" y="1259" type="line"/>
      <point x="82" y="1293" type="line"/>
      <point x="82" y="1500" type="line"/>
      <point x="698" y="1500" type="line"/>
      <point x="698" y="1293" type="line"/>
      <point x="480" y="1259" type="line"/>
      <point x="478" y="754" type="line"/>
      <point x="480" y="236" type="line"/>
      <point x="698" y="200" type="line"/>
      <point x="698" y="0" type="line"/>
    </contour>
  </outline>
</glyph>
<glyph name="gravecomb" format="2">
  <unicode hex="0300"/>
  <anchor x="0.0" y="1000" name="_top"/>
  <anchor x="0.0" y="1497.0" name="top"/>
  <outline>
    <contour>
      <point x="-235" y="1432" type="qcurve" smooth="yes"/>
      <point x="-235" y="1475"/>
      <point x="-174" y="1518"/>
      <point x="-140" y="1518" type="qcurve" smooth="yes"/>
      <point x="-103" y="1518"/>
      <point x="-19" y="1460"/>
      <point x="18" y="1426" type="qcurve" smooth="yes"/>
      <point x="231" y="1230" type="line"/>
      <point x="112" y="1106" type="line"/>
      <point x="-157" y="1317" type="line" smooth="yes"/>
      <point x="-197" y="1348"/>
      <point x="-235" y="1393"/>
    </contour>
  </outline>
</glyph>
<glyph name="acutecomb" format="2">
  <unicode hex="0301"/>
  <anchor x="0.0" y="1000" name="_top"/>
  <anchor x="0.0" y="1524.0" name="top"/>
  <outline>
    <contour>
      <point x="235" y="1441" type="qcurve" smooth="yes"/>
      <point x="235" y="1398"/>
      <point x="192" y="1360"/>
      <point x="152" y="1327" type="qcurve" smooth="yes"/>
      <point x="-124" y="1097" type="line"/>
      <point x="-247" y="1227" type="line"/>
      <point x="-14" y="1425" type="line" smooth="yes"/>
      <point x="25" y="1458"/>
      <point x="101" y="1523"/>
      <point x="138" y="1523" type="qcurve" smooth="yes"/>
      <point x="172" y="1523"/>
      <point x="235" y="1480"/>
    </contour>
  </outline>
</glyph>
<glyph name="circumflexcomb" format="2">
  <unicode hex="0302"/>
  <anchor x="0.0" y="1000" name="_top"/>
  <anchor x="0.0" y="1539.0" name="top"/>
  <outline>
    <contour>
      <point x="0" y="1539" type="qcurve" smooth="yes"/>
      <point x="34" y="1539"/>
      <point x="79" y="1509"/>
      <point x="120" y="1476" type="qcurve" smooth="yes"/>
      <point x="379" y="1270" type="line"/>
      <point x="261" y="1143" type="line"/>
      <point x="0" y="1345" type="line"/>
      <point x="-255" y="1150" type="line"/>
      <point x="-382" y="1266" type="line"/>
      <point x="-122" y="1476" type="line" smooth="yes"/>
      <point x="-73" y="1516"/>
      <point x="-34" y="1539"/>
    </contour>
  </outline>
</glyph>
<glyph name="tildecomb" format="2">
  <unicode hex="0303"/>
  <anchor x="0.0" y="1000" name="_top"/>
  <anchor x="0.0" y="1402" name="top"/>
  <outline>
    <contour>
      <point x="-385" y="1243" type="line"/>
      <point x="-342" y="1327"/>
      <point x="-222" y="1402"/>
      <point x="-132" y="1402" type="qcurve" smooth="yes"/>
      <point x="-92" y="1402"/>
      <point x="-22" y="1374"/>
      <point x="15" y="1348" type="qcurve" smooth="yes"/>
      <point x="41" y="1331"/>
      <point x="126" y="1279"/>
      <point x="167" y="1279" type="qcurve" smooth="yes"/>
      <point x="200" y="1279"/>
      <point x="263" y="1333"/>
      <point x="300" y="1394" type="qcurve"/>
      <point x="385" y="1280" type="line"/>
      <point x="349" y="1202"/>
      <point x="237" y="1132"/>
      <point x="151" y="1132" type="qcurve" smooth="yes"/>
      <point x="104" y="1132"/>
      <point x="11" y="1177"/>
      <point x="-16" y="1197" type="qcurve" smooth="yes"/>
      <point x="-48" y="1220"/>
      <point x="-120" y="1255"/>
      <point x="-148" y="1255" type="qcurve" smooth="yes"/>
      <point x="-180" y="1255"/>
      <point x="-246" y="1194"/>
      <point x="-289" y="1126" type="qcurve"/>
    </contour>
  </outline>
</glyph>
<glyph name="brevecomb" format="2">
  <unicode hex="0306"/>
  <anchor x="0.0" y="1000" name="_top"/>
  <anchor x="0.0" y="1464.0" name="top"/>
  <outline>
    <contour>
      <point x="214.0" y="1491.0" type="qcurve"/>
      <point x="372" y="1396" type="line"/>
      <point x="340" y="1317"/>
      <point x="129" y="1143"/>
      <point x="0" y="1143" type="qcurve" smooth="yes"/>
      <point x="-129" y="1143"/>
      <point x="-333" y="1297"/>
      <point x="-371" y="1396" type="qcurve"/>
      <point x="-212.0" y="1492.0" type="line"/>
      <point x="-197.0" y="1435.0"/>
      <point x="-96" y="1301"/>
      <point x="1" y="1299" type="qcurve" smooth="yes"/>
      <point x="101" y="1301"/>
      <point x="203.0" y="1437.0"/>
    </contour>
  </outline>
</glyph>
<glyph name="dotaccentcomb" format="2">
  <unicode hex="0307"/>
  <anchor x="0.0" y="1000" name="_top"/>
  <anchor x="0.0" y="1372.0" name="top"/>
  <outline>
    <contour>
      <point x="-121" y="1254" type="qcurve" smooth="yes"/>
      <point x="-121" y="1311"/>
      <point x="-59" y="1372"/>
      <point x="0" y="1372" type="qcurve" smooth="yes"/>
      <point x="55" y="1372"/>
      <point x="121" y="1307"/>
      <point x="121" y="1254" type="qcurve" smooth="yes"/>
      <point x="121" y="1197"/>
      <point x="59" y="1136"/>
      <point x="0" y="1136" type="qcurve" smooth="yes"/>
      <point x="-55" y="1136"/>
      <point x="-121" y="1201"/>
    </contour>
  </outline>
</glyph>
<glyph name="hookabovecomb" format="2">
  <unicode hex="0309"/>
  <anchor x="0.0" y="1000" name="_top"/>
  <anchor x="0.0" y="1597.0" name="top"/>
  <outline>
    <contour>
      <point x="-150" y="1141" type="line"/>
      <point x="-150" y="1235" type="line"/>
      <point x="-91" y="1333" type="line"/>
      <point x="-77" y="1327"/>
      <point x="-3" y="1320"/>
      <point x="15" y="1320" type="qcurve" smooth="yes"/>
      <point x="70" y="1320"/>
      <point x="99" y="1352"/>
      <point x="99" y="1374" type="qcurve" smooth="yes"/>
      <point x="99" y="1394"/>
      <point x="47" y="1433"/>
      <point x="-1" y="1433" type="qcurve" smooth="yes"/>
      <point x="-57" y="1433"/>
      <point x="-161" y="1411"/>
      <point x="-194" y="1395" type="qcurve"/>
      <point x="-239" y="1545" type="line"/>
      <point x="-185" y="1570"/>
      <point x="-48" y="1597"/>
      <point x="10" y="1597" type="qcurve" smooth="yes"/>
      <point x="114" y="1597"/>
      <point x="240" y="1492"/>
      <point x="240" y="1395" type="qcurve" smooth="yes"/>
      <point x="240" y="1310"/>
      <point x="144" y="1202"/>
      <point x="78" y="1202" type="qcurve" smooth="yes"/>
      <point x="52" y="1202"/>
      <point x="31" y="1204"/>
      <point x="17" y="1207" type="qcurve"/>
      <point x="17" y="1141" type="line"/>
    </contour>
  </outline>
</glyph>
<glyph name="hungarumlautcomb" format="2">
  <unicode hex="030B"/>
  <anchor x="0.0" y="1000" name="_top"/>
  <anchor x="0.0" y="1534" name="top"/>
  <outline>
    <contour>
      <point x="3" y="1469" type="qcurve" smooth="yes"/>
      <point x="3" y="1436"/>
      <point x="-38" y="1382"/>
      <point x="-75" y="1346" type="qcurve" smooth="yes"/>
      <point x="-303" y="1130" type="line"/>
      <point x="-426" y="1260" type="line"/>
      <point x="-243" y="1448" type="line" smooth="yes"/>
      <point x="-207" y="1484"/>
      <point x="-131" y="1551"/>
      <point x="-94" y="1551" type="qcurve" smooth="yes"/>
      <point x="-60" y="1551"/>
      <point x="3" y="1508"/>
    </contour>
    <contour>
      <point x="394" y="1469" type="qcurve" smooth="yes"/>
      <point x="394" y="1436"/>
      <point x="353" y="1382"/>
      <point x="316" y="1346" type="qcurve" smooth="yes"/>
      <point x="88" y="1130" type="line"/>
      <point x="-35" y="1260" type="line"/>
      <point x="148" y="1448" type="line" smooth="yes"/>
      <point x="184" y="1484"/>
      <point x="260" y="1551"/>
      <point x="297" y="1551" type="qcurve" smooth="yes"/>
      <point x="331" y="1551"/>
      <point x="394" y="1508"/>
    </contour>
  </outline>
</glyph>
<glyph name="caroncomb" format="2">
  <unicode hex="030C"/>
  <anchor x="0.0" y="1000" name="_top"/>
  <anchor x="0.0" y="1511.0" name="top"/>
  <outline>
    <contour>
      <point x="-1" y="1122" type="qcurve" smooth="yes"/>
      <point x="-35" y="1122"/>
      <point x="-80" y="1152"/>
      <point x="-121" y="1185" type="qcurve" smooth="yes"/>
      <point x="-380" y="1391" type="line"/>
      <point x="-262" y="1518" type="line"/>
      <point x="-1" y="1316" type="line"/>
      <point x="254" y="1511" type="line"/>
      <point x="381" y="1395" type="line"/>
      <point x="121" y="1185" type="line" smooth="yes"/>
      <point x="72" y="1145"/>
      <point x="33" y="1122"/>
    </contour>
  </outline>
</glyph>
<glyph name="breveinvertedcomb" format="2">
  <unicode hex="030F"/>
  <anchor x="0.0" y="1000" name="_top"/>
  <anchor x="0.0" y="1470.0" name="top"/>
  <outline>
    <contour>
      <point x="-213" y="1123" type="qcurve"/>
      <point x="-371" y="1218" type="line"/>
      <point x="-339" y="1297"/>
      <point x="-128" y="1471"/>
      <point x="1" y="1471" type="qcurve" smooth="yes"/>
      <point x="130" y="1471"/>
      <point x="334" y="1317"/>
      <point x="372" y="1218" type="qcurve"/>
      <point x="213" y="1122" type="line"/>
      <point x="198" y="1179"/>
      <point x="97" y="1313"/>
      <point x="0" y="1315" type="qcurve" smooth="yes"/>
      <point x="-100" y="1313"/>
      <point x="-202" y="1177"/>
    </contour>
  </outline>
</glyph>
<glyph name="dblgravecomb" format="2">
  <unicode hex="0311"/>
  <anchor x="0.0" y="1000" name="_top"/>
  <anchor x="0.0" y="1585.0" name="top"/>
  <outline>
    <contour>
      <point x="-125" y="1491" type="qcurve" smooth="yes"/>
      <point x="-125" y="1530"/>
      <point x="-65" y="1576"/>
      <point x="-31" y="1576" type="qcurve" smooth="yes"/>
      <point x="6" y="1576"/>
      <point x="58" y="1536"/>
      <point x="112" y="1473" type="qcurve" smooth="yes"/>
      <point x="300" y="1253" type="line"/>
      <point x="174" y="1132" type="line"/>
      <point x="-48" y="1367" type="line" smooth="yes"/>
      <point x="-83" y="1405"/>
      <point x="-125" y="1458"/>
    </contour>
    <contour>
      <point x="-516" y="1491" type="qcurve" smooth="yes"/>
      <point x="-516" y="1530"/>
      <point x="-456" y="1576"/>
      <point x="-422" y="1576" type="qcurve" smooth="yes"/>
      <point x="-385" y="1576"/>
      <point x="-329" y="1532"/>
      <point x="-276" y="1470" type="qcurve" smooth="yes"/>
      <point x="-91" y="1253" type="line"/>
      <point x="-217" y="1132" type="line"/>
      <point x="-439" y="1367" type="line" smooth="yes"/>
      <point x="-474" y="1405"/>
      <point x="-516" y="1458"/>
    </contour>
  </outline>
</glyph>
<glyph name="horncomb" format="2">
  <unicode hex="031B"/>
  <anchor x="1" y="1000" name="_topright"/>
  <anchor x="0.0" y="1256" name="topright"/>
  <outline>
    <contour>
      <point x="0" y="1000" type="line"/>
      <point x="43" y="991"/>
      <point x="123" y="981"/>
      <point x="156" y="981" type="qcurve" smooth="yes"/>
      <point x="208" y="981"/>
      <point x="244" y="1030"/>
      <point x="244" y="1085" type="qcurve" smooth="yes"/>
      <point x="244" y="1120"/>
      <point x="228" y="1208"/>
      <point x="215" y="1256" type="qcurve"/>
      <point x="397" y="1256" type="line"/>
      <point x="408" y="1206"/>
      <point x="423" y="1106"/>
      <point x="423" y="1063" type="qcurve" smooth="yes"/>
      <point x="423" y="973"/>
      <point x="307" y="853"/>
      <point x="189" y="853" type="qcurve" smooth="yes"/>
      <point x="151" y="853"/>
      <point x="51" y="870"/>
      <point x="0" y="889" type="qcurve"/>
    </contour>
  </outline>
</glyph>
<glyph name="cedillacomb" format="2">
  <unicode hex="0327"/>
  <anchor x="0.0" y="0" name="_bottom"/>
  <anchor x="-18.0" y="-541.0" name="bottom"/>
  <outline>
    <contour>
      <point x="41" y="0" type="line"/>
      <point x="-26" y="-125" type="line"/>
      <point x="-9" y="-119"/>
      <point x="49" y="-106"/>
      <point x="79" y="-106" type="qcurve" smooth="yes"/>
      <point x="155" y="-106"/>
      <point x="266" y="-196"/>
      <point x="266" y="-285" type="qcurve" smooth="yes"/>
      <point x="266" y="-380"/>
      <point x="124" y="-494"/>
      <point x="33" y="-494" type="qcurve" smooth="yes"/>
      <point x="-56" y="-494"/>
      <point x="-213" y="-450"/>
      <point x="-265" y="-408" type="qcurve"/>
      <point x="-213" y="-299" type="line"/>
      <point x="-175" y="-331"/>
      <point x="-66" y="-375"/>
      <point x="-2" y="-375" type="qcurve" smooth="yes"/>
      <point x="42" y="-375"/>
      <point x="113" y="-328"/>
      <point x="113" y="-282" type="qcurve" smooth="yes"/>
      <point x="113" y="-239"/>
      <point x="54" y="-204"/>
      <point x="2" y="-204" type="qcurve" smooth="yes"/>
      <point x="-29" y="-204"/>
      <point x="-78" y="-212"/>
      <point x="-95" y="-218" type="qcurve"/>
      <point x="-154" y="-146" type="line"/>
      <point x="-50" y="53" type="line"/>
    </contour>
  </outline>
</glyph>
<glyph name="ogonekcomb" format="2">
  <unicode hex="0328"/>
  <anchor x="43.0" y="0" name="_ogonek"/>
  <anchor x="-32.0" y="-463.0" name="bottom"/>
  <outline>
    <contour>
      <point x="-120" y="-240" type="qcurve" smooth="yes"/>
      <point x="-120" y="-282"/>
      <point x="-62" y="-332"/>
      <point x="-13" y="-332" type="qcurve" smooth="yes"/>
      <point x="38" y="-332"/>
      <point x="158" y="-273"/>
      <point x="196" y="-227" type="qcurve"/>
      <point x="274" y="-358" type="line"/>
      <point x="233" y="-402"/>
      <point x="71" y="-463"/>
      <point x="-38" y="-463" type="qcurve" smooth="yes"/>
      <point x="-147" y="-463"/>
      <point x="-274" y="-369"/>
      <point x="-274" y="-287" type="qcurve" smooth="yes"/>
      <point x="-274" y="-202"/>
      <point x="-176" y="-21"/>
      <point x="-102" y="53" type="qcurve" smooth="yes"/>
      <point x="-82" y="73" type="line"/>
      <point x="36" y="0" type="line"/>
      <point x="19" y="-18" type="line" smooth="yes"/>
      <point x="-52" y="-93"/>
      <point x="-120" y="-190"/>
    </contour>
  </outline>
</glyph>
<glyph name="acutecomb.case" format="2">
  <anchor x="0.0" y="1500" name="_top"/>
  <anchor x="0.0" y="2086.0" name="top"/>
  <outline>
    <contour>
      <point x="241" y="2008" type="qcurve" smooth="yes"/>
      <point x="241" y="1965"/>
      <point x="198" y="1921"/>
      <point x="160" y="1890" type="qcurve" smooth="yes"/>
      <point x="-120" y="1662" type="line"/>
      <point x="-240" y="1782" type="line"/>
      <point x="-6" y="1988" type="line" smooth="yes"/>
      <point x="32" y="2022"/>
      <point x="109" y="2085"/>
      <point x="146" y="2086" type="qcurve" smooth="yes"/>
      <point x="184" y="2087"/>
      <point x="241" y="2043"/>
    </contour>
  </outline>
</glyph>
<glyph name="brevebelowcomb.case" format="2">
  <anchor x="1.0" y="0" name="_bottom"/>
  <anchor x="1.0" y="-426" name="bottom"/>
  <outline>
    <contour>
      <point x="230" y="-44" type="qcurve"/>
      <point x="384" y="-160" type="line"/>
      <point x="345" y="-259"/>
      <point x="144" y="-426"/>
      <point x="0" y="-426" type="qcurve" smooth="yes"/>
      <point x="-128" y="-426"/>
      <point x="-335" y="-273"/>
      <point x="-383" y="-159" type="qcurve"/>
      <point x="-209" y="-40" type="line"/>
      <point x="-185" y="-111"/>
      <point x="-77" y="-257"/>
      <point x="0" y="-257" type="qcurve" smooth="yes"/>
      <point x="77" y="-257"/>
      <point x="198" y="-120"/>
    </contour>
  </outline>
</glyph>
<glyph name="brevecomb.case" format="2">
  <anchor x="0.0" y="1500" name="_top"/>
  <anchor x="0.0" y="1976.0" name="top"/>
  <outline>
    <contour>
      <point x="231" y="2017" type="qcurve"/>
      <point x="383" y="1906" type="line"/>
      <point x="347" y="1801"/>
      <point x="144" y="1640"/>
      <point x="0" y="1640" type="qcurve" smooth="yes"/>
      <point x="-128" y="1640"/>
      <point x="-337" y="1793"/>
      <point x="-383" y="1909" type="qcurve"/>
      <point x="-220" y="2018" type="line"/>
      <point x="-172" y="1938"/>
      <point x="-69" y="1809"/>
      <point x="0" y="1809" type="qcurve" smooth="yes"/>
      <point x="69" y="1809"/>
      <point x="174" y="1906"/>
    </contour>
  </outline>
</glyph>
<glyph name="breveinvertedcomb.case" format="2">
  <anchor x="0.0" y="1500" name="_top"/>
  <anchor x="0.0" y="1949" name="top"/>
  <outline>
    <contour>
      <point x="-292" y="1611" type="qcurve"/>
      <point x="-439" y="1722" type="line"/>
      <point x="-359" y="1839"/>
      <point x="-146" y="1949"/>
      <point x="-2" y="1949" type="qcurve" smooth="yes"/>
      <point x="126" y="1949"/>
      <point x="351" y="1839"/>
      <point x="440" y="1721" type="qcurve"/>
      <point x="282" y="1612" type="line"/>
      <point x="236" y="1678"/>
      <point x="93" y="1780"/>
      <point x="-2" y="1780" type="qcurve" smooth="yes"/>
      <point x="-104" y="1780"/>
      <point x="-249" y="1678"/>
    </contour>
  </outline>
</glyph>
<glyph name="caroncomb.alt" format="2">
  <anchor x="-184" y="1000" name="_topright"/>
  <outline>
    <contour>
      <point x="-26" y="1036" type="line"/>
      <point x="75" y="1380" type="line" smooth="yes"/>
      <point x="95" y="1449"/>
      <point x="148" y="1520"/>
      <point x="188" y="1520" type="qcurve" smooth="yes"/>
      <point x="228" y="1520"/>
      <point x="278" y="1480"/>
      <point x="278" y="1440" type="qcurve" smooth="yes"/>
      <point x="278" y="1400"/>
      <point x="257" y="1335"/>
      <point x="238" y="1289" type="qcurve" smooth="yes"/>
      <point x="114" y="992" type="line"/>
    </contour>
  </outline>
</glyph>
<glyph name="caroncomb.case" format="2">
  <anchor x="0.0" y="1500" name="_top"/>
  <anchor x="0.0" y="2011" name="top"/>
  <outline>
    <contour>
      <point x="-1" y="1615" type="qcurve" smooth="yes"/>
      <point x="-35" y="1615"/>
      <point x="-69" y="1646"/>
      <point x="-111" y="1678" type="qcurve" smooth="yes"/>
      <point x="-380" y="1884" type="line"/>
      <point x="-262" y="2011" type="line"/>
      <point x="-1" y="1809" type="line"/>
      <point x="254" y="2004" type="line"/>
      <point x="381" y="1888" type="line"/>
      <point x="109" y="1678" type="line" smooth="yes"/>
      <point x="59" y="1639"/>
      <point x="33" y="1615"/>
    </contour>
  </outline>
</glyph>
<glyph name="cedillacomb.case" format="2">
  <anchor x="0.0" y="0" name="_bottom"/>
  <anchor x="0.0" y="-558.0" name="bottom"/>
  <outline>
    <contour>
      <point x="82" y="-42" type="line"/>
      <point x="18" y="-177" type="line"/>
      <point x="34" y="-173"/>
      <point x="61" y="-171"/>
      <point x="91" y="-171" type="qcurve" smooth="yes"/>
      <point x="167" y="-171"/>
      <point x="278" y="-270"/>
      <point x="278" y="-362" type="qcurve" smooth="yes"/>
      <point x="278" y="-467"/>
      <point x="133" y="-581"/>
      <point x="35" y="-581" type="qcurve" smooth="yes"/>
      <point x="-54" y="-581"/>
      <point x="-216" y="-551"/>
      <point x="-277" y="-505" type="qcurve"/>
      <point x="-203" y="-354" type="line"/>
      <point x="-171" y="-372"/>
      <point x="-64" y="-415"/>
      <point x="0" y="-415" type="qcurve" smooth="yes"/>
      <point x="44" y="-415"/>
      <point x="115" y="-394"/>
      <point x="115" y="-361" type="qcurve" smooth="yes"/>
      <point x="115" y="-328"/>
      <point x="56" y="-301"/>
      <point x="4" y="-301" type="qcurve" smooth="yes"/>
      <point x="-27" y="-301"/>
      <point x="-76" y="-309"/>
      <point x="-93" y="-315" type="qcurve"/>
      <point x="-161" y="-194" type="line"/>
      <point x="-42" y="29" type="line"/>
    </contour>
  </outline>
</glyph>
<glyph name="circumflexcomb.case" format="2">
  <anchor x="0.0" y="1500" name="_top"/>
  <anchor x="0.0" y="2063.0" name="top"/>
  <outline>
    <contour>
      <point x="2" y="2062" type="qcurve" smooth="yes"/>
      <point x="36" y="2062"/>
      <point x="81" y="2032"/>
      <point x="122" y="1999" type="qcurve" smooth="yes"/>
      <point x="381" y="1793" type="line"/>
      <point x="263" y="1666" type="line"/>
      <point x="2" y="1868" type="line"/>
      <point x="-253" y="1673" type="line"/>
      <point x="-380" y="1789" type="line"/>
      <point x="-120" y="1999" type="line" smooth="yes"/>
      <point x="-71" y="2039"/>
      <point x="-32" y="2062"/>
    </contour>
  </outline>
</glyph>
<glyph name="commaaccentcomb.case" format="2">
  <anchor x="17.0" y="0" name="_bottom"/>
  <anchor x="17.0" y="-700.0" name="bottom"/>
  <outline>
    <contour>
      <point x="-179" y="-578" type="line"/>
      <point x="-143" y="-555"/>
      <point x="-51" y="-471"/>
      <point x="-34" y="-415" type="qcurve"/>
      <point x="-51" y="-402"/>
      <point x="-98" y="-360"/>
      <point x="-98" y="-303" type="qcurve" smooth="yes"/>
      <point x="-98" y="-247"/>
      <point x="-20" y="-165"/>
      <point x="41" y="-165" type="qcurve" smooth="yes"/>
      <point x="98" y="-165"/>
      <point x="180" y="-238"/>
      <point x="180" y="-312" type="qcurve" smooth="yes"/>
      <point x="180" y="-429"/>
      <point x="27" y="-641"/>
      <point x="-68" y="-700" type="qcurve"/>
    </contour>
  </outline>
</glyph>
<glyph name="dblgravecomb.case" format="2">
  <anchor x="0.0" y="1500" name="_top"/>
  <anchor x="0.0" y="1994" name="top"/>
  <outline>
    <contour>
      <point x="-404" y="1916.0" type="qcurve" smooth="yes"/>
      <point x="-404" y="1951.0"/>
      <point x="-343" y="1994.0"/>
      <point x="-309" y="1994.0" type="qcurve" smooth="yes"/>
      <point x="-272" y="1994.0"/>
      <point x="-221" y="1935.0"/>
      <point x="-186" y="1898.0" type="qcurve" smooth="yes"/>
      <point x="15" y="1690.0" type="line"/>
      <point x="-101" y="1570.0" type="line"/>
      <point x="-323" y="1789.0" type="line" smooth="yes"/>
      <point x="-359" y="1824.0"/>
      <point x="-404" y="1869.0"/>
    </contour>
    <contour>
      <point x="-14" y="1916.0" type="qcurve" smooth="yes"/>
      <point x="-14" y="1951.0"/>
      <point x="47" y="1994.0"/>
      <point x="81" y="1994.0" type="qcurve" smooth="yes"/>
      <point x="118" y="1994.0"/>
      <point x="169" y="1935.0"/>
      <point x="205" y="1898.0" type="qcurve" smooth="yes"/>
      <point x="405" y="1690.0" type="line"/>
      <point x="289" y="1570.0" type="line"/>
      <point x="67" y="1789.0" type="line" smooth="yes"/>
      <point x="31" y="1824.0"/>
      <point x="-14" y="1869.0"/>
    </contour>
  </outline>
</glyph>
<glyph name="dieresistonoscomb" format="2">
  <anchor x="0" y="1000" name="_GRKtop"/>
  <outline>
    <contour>
      <point x="-290" y="1154" type="qcurve" smooth="yes"/>
      <point x="-343" y="1154"/>
      <point x="-406" y="1216"/>
      <point x="-406" y="1267" type="qcurve" smooth="yes"/>
      <point x="-406" y="1322"/>
      <point x="-346" y="1381"/>
      <point x="-290" y="1381" type="qcurve" smooth="yes"/>
      <point x="-237" y="1381"/>
      <point x="-174" y="1318"/>
      <point x="-174" y="1267" type="qcurve" smooth="yes"/>
      <point x="-174" y="1213"/>
      <point x="-233" y="1154"/>
    </contour>
    <contour>
      <point x="11" y="1150" type="line"/>
      <point x="-85" y="1166" type="line"/>
      <point x="-54" y="1601" type="line"/>
      <point x="106" y="1611" type="line"/>
      <point x="140" y="1571" type="line"/>
    </contour>
    <contour>
      <point x="290" y="1154" type="qcurve" smooth="yes"/>
      <point x="237" y="1154"/>
      <point x="174" y="1216"/>
      <point x="174" y="1267" type="qcurve" smooth="yes"/>
      <point x="174" y="1322"/>
      <point x="234" y="1381"/>
      <point x="290" y="1381" type="qcurve" smooth="yes"/>
      <point x="343" y="1381"/>
      <point x="406" y="1318"/>
      <point x="406" y="1267" type="qcurve" smooth="yes"/>
      <point x="406" y="1213"/>
      <point x="347" y="1154"/>
    </contour>
  </outline>
</glyph>
<glyph name="gravecomb.case" format="2">
  <anchor x="0.0" y="1500" name="_top"/>
  <anchor x="0.0" y="2086.0" name="top"/>
  <outline>
    <contour>
      <point x="-240" y="2008" type="qcurve" smooth="yes"/>
      <point x="-240" y="2043"/>
      <point x="-179" y="2086"/>
      <point x="-145" y="2086" type="qcurve" smooth="yes"/>
      <point x="-108" y="2086"/>
      <point x="-28" y="2024"/>
      <point x="7" y="1987" type="qcurve" smooth="yes"/>
      <point x="241" y="1782" type="line"/>
      <point x="121" y="1662" type="line"/>
      <point x="-159" y="1891" type="line" smooth="yes"/>
      <point x="-200" y="1919"/>
      <point x="-240" y="1961"/>
    </contour>
  </outline>
</glyph>
<glyph name="hookabovecomb.case" format="2">
  <anchor x="0.0" y="1500" name="_top"/>
  <anchor x="0.0" y="2096.0" name="top"/>
  <outline>
    <contour>
      <point x="-150" y="1640" type="line"/>
      <point x="-150" y="1734" type="line"/>
      <point x="-91" y="1832" type="line"/>
      <point x="-77" y="1826"/>
      <point x="-3" y="1819"/>
      <point x="15" y="1819" type="qcurve" smooth="yes"/>
      <point x="70" y="1819"/>
      <point x="99" y="1851"/>
      <point x="99" y="1873" type="qcurve" smooth="yes"/>
      <point x="99" y="1893"/>
      <point x="47" y="1932"/>
      <point x="-1" y="1932" type="qcurve" smooth="yes"/>
      <point x="-57" y="1932"/>
      <point x="-161" y="1910"/>
      <point x="-194" y="1894" type="qcurve"/>
      <point x="-239" y="2044" type="line"/>
      <point x="-185" y="2069"/>
      <point x="-48" y="2096"/>
      <point x="10" y="2096" type="qcurve" smooth="yes"/>
      <point x="114" y="2096"/>
      <point x="240" y="1991"/>
      <point x="240" y="1894" type="qcurve" smooth="yes"/>
      <point x="240" y="1809"/>
      <point x="144" y="1701"/>
      <point x="78" y="1701" type="qcurve" smooth="yes"/>
      <point x="52" y="1701"/>
      <point x="31" y="1703"/>
      <point x="17" y="1706" type="qcurve"/>
      <point x="17" y="1640" type="line"/>
    </contour>
  </outline>
</glyph>
<glyph name="horncomb.case" format="2">
  <anchor x="-207.0" y="1500" name="_topright"/>
  <anchor x="-206.0" y="1790" name="topright"/>
  <outline>
    <contour>
      <point x="-182" y="1500" type="line"/>
      <point x="-148" y="1500"/>
      <point x="-144" y="1500"/>
      <point x="-104" y="1500" type="qcurve" smooth="yes"/>
      <point x="-56" y="1500"/>
      <point x="1" y="1540"/>
      <point x="1" y="1577" type="qcurve" smooth="yes"/>
      <point x="1" y="1625"/>
      <point x="-8" y="1725"/>
      <point x="-26" y="1790" type="qcurve"/>
      <point x="156" y="1790" type="line"/>
      <point x="168" y="1742"/>
      <point x="182" y="1593"/>
      <point x="182" y="1524" type="qcurve" smooth="yes"/>
      <point x="182" y="1431"/>
      <point x="62" y="1364"/>
      <point x="-32" y="1364" type="qcurve" smooth="yes"/>
      <point x="-72" y="1364"/>
      <point x="-152" y="1369"/>
      <point x="-182" y="1375" type="qcurve"/>
    </contour>
  </outline>
</glyph>
<glyph name="ogonekcomb.case" format="2">
  <anchor x="43.0" y="0" name="_ogonek"/>
  <anchor x="-8.0" y="-497" name="bottom"/>
  <outline>
    <contour>
      <point x="-296" y="-306" type="qcurve" smooth="yes"/>
      <point x="-296" y="-217"/>
      <point x="-217" y="-26"/>
      <point x="-158" y="29" type="qcurve" smooth="yes"/>
      <point x="-106" y="77" type="line"/>
      <point x="46" y="0" type="line"/>
      <point x="5" y="-42" type="line" smooth="yes"/>
      <point x="-57" y="-106"/>
      <point x="-124" y="-220"/>
      <point x="-124" y="-265" type="qcurve" smooth="yes"/>
      <point x="-124" y="-303"/>
      <point x="-74" y="-347"/>
      <point x="-25" y="-347" type="qcurve" smooth="yes"/>
      <point x="25" y="-347"/>
      <point x="155" y="-272"/>
      <point x="211" y="-214" type="qcurve"/>
      <point x="297" y="-377" type="line"/>
      <point x="248" y="-437"/>
      <point x="65" y="-497"/>
      <point x="-39" y="-497" type="qcurve" smooth="yes"/>
      <point x="-144" y="-497"/>
      <point x="-296" y="-384"/>
    </contour>
  </outline>
</glyph>
<glyph name="tildecomb.case" format="2">
  <anchor x="0.0" y="1500" name="_top"/>
  <anchor x="0.0" y="1932.0" name="top"/>
  <outline>
    <contour>
      <point x="-463" y="1800" type="line"/>
      <point x="-385" y="1879"/>
      <point x="-225" y="1932"/>
      <point x="-148" y="1932" type="qcurve" smooth="yes"/>
      <point x="-102" y="1932"/>
      <point x="-20" y="1902"/>
      <point x="22" y="1874" type="qcurve" smooth="yes"/>
      <point x="52" y="1856"/>
      <point x="149" y="1800"/>
      <point x="196" y="1800" type="qcurve" smooth="yes"/>
      <point x="242" y="1800"/>
      <point x="310" y="1835"/>
      <point x="352" y="1897" type="qcurve"/>
      <point x="463" y="1762" type="line"/>
      <point x="385" y="1681"/>
      <point x="240" y="1640"/>
      <point x="177" y="1640" type="qcurve" smooth="yes"/>
      <point x="124" y="1640"/>
      <point x="17" y="1689"/>
      <point x="-15" y="1711" type="qcurve" smooth="yes"/>
      <point x="-51" y="1736"/>
      <point x="-134" y="1774"/>
      <point x="-167" y="1774" type="qcurve" smooth="yes"/>
      <point x="-220" y="1774"/>
      <point x="-308" y="1713"/>
      <point x="-341" y="1665" type="qcurve"/>
    </contour>
  </outline>
</glyph>
<glyph name="zerosuperior" format="2">
  <advance width="938"/>
  <outline>
    <contour>
      <point x="74" y="1081" type="qcurve" smooth="yes"/>
      <point x="74" y="1273"/>
      <point x="291" y="1522"/>
      <point x="467" y="1522" type="qcurve" smooth="yes"/>
      <point x="644" y="1522"/>
      <point x="864" y="1291"/>
      <point x="864" y="1087" type="qcurve" smooth="yes"/>
      <point x="864" y="896"/>
      <point x="648" y="641"/>
      <point x="472" y="641" type="qcurve" smooth="yes"/>
      <point x="295" y="641"/>
      <point x="74" y="876"/>
    </contour>
    <contour>
      <point x="236" y="1093" type="qcurve" smooth="yes"/>
      <point x="236" y="988"/>
      <point x="362" y="860"/>
      <point x="466" y="860" type="qcurve" smooth="yes"/>
      <point x="577" y="860"/>
      <point x="697" y="975"/>
      <point x="697" y="1085" type="qcurve" smooth="yes"/>
      <point x="697" y="1185"/>
      <point x="572" y="1299"/>
      <point x="467" y="1299" type="qcurve" smooth="yes"/>
      <point x="355" y="1299"/>
      <point x="235" y="1196"/>
    </contour>
  </outline>
</glyph>
